# xmcd
#
# Track frame offsets: 
#        150
#        13350
#        25695
#        40695
#        56582
#        67227
#        79542
#        94560
#        116517
#        132052
#        143277
#        161710
#        177302
#        191550
#        202887
#        212647
#        223810
#        245072
#        255322
#        274262
#
# Disc length: 3832 seconds
#
# Revision: 0
# Processed by: cddbd v1.5.2PL0 Copyright (c) Steve Scherf et al.
# Submitted via: ExactAudioCopy v1.3
#
DISCID=1a0ef614
DTITLE=Various Artist - EWOB 1999
DYEAR=1999
DGENRE=Bluegrass
TTITLE0=Downhill - Room At The Top Of The Stairs
TTITLE1=Relief - Leaves In The Wind
TTITLE2=Nugget - It Won't Be Long
TTITLE3=Liz Meyer with Nugget - Blue Night
TTITLE4=Monogram - Restless
TTITLE5=Fifty Fingers - Once Upon A Heartbeat
TTITLE6=Roberto Dalla Vecchia - Hurry
TTITLE7=Lilly Of The West - Sto mi e milo Drago
TTITLE8=New Lowland - If I Were You
TTITLE9=Looping Brothers - Hill Of Many Staines
TTITLE10=Die Stroatklinkers - Zunder Die
TTITLE11=Skip Gorman and His Waddie Pals - I'd Like To Be In Texas
TTITLE12=4-Wheel Drive - Wild And Wicked World
TTITLE13=Lojzici - Home In San Antone
TTITLE14=Petr Brandejs Band - I'll Take Raine
TTITLE15=Rawhide - The High Road
TTITLE16=Bird Dog - Holy Ground
TTITLE17=Chris Jones and The Night Drivers - Ribbon Of Darkness
TTITLE18=Slavek Hanzlik with Chris Jones and The Night Drivers - Cascade
TTITLE18=s
TTITLE19=Kate MacKenzie Band - Pan American Boogie
EXTD=
EXTT0=
EXTT1=
EXTT2=
EXTT3=
EXTT4=
EXTT5=
EXTT6=
EXTT7=
EXTT8=
EXTT9=
EXTT10=
EXTT11=
EXTT12=
EXTT13=
EXTT14=
EXTT15=
EXTT16=
EXTT17=
EXTT18=
EXTT19=
PLAYORDER=
